<svg version="1.1"  xmlns="http://www.w3.org/2000/svg">
  <symbol id="test" width="41" height="33" viewBox="0 0 41 33">
  </symbol>
  <symbol id="icon-play" width="14" height="17" viewBox="0 0 14 17">
    <path d="M3.1094 0.339262C1.78029 -0.546811 0 0.405972 0 2.00336V14.5293C0 16.1267 1.78029 17.0795 3.1094 16.1934L12.5039 9.93043C13.6913 9.13878 13.6913 7.39387 12.5039 6.60223L3.1094 0.339262Z"/>
  </symbol>
  <symbol id="icon-arrow-top" width="14" height="9" viewBox="0 0 14 9">
    <path d="M6.36393 0.707078C6.75446 0.316554 7.38762 0.316553 7.77815 0.707078C8.16867 1.0976 8.16867 1.73077 7.77815 2.12129L2.12129 7.77815C1.73077 8.16867 1.0976 8.16867 0.707078 7.77815C0.316554 7.38762 0.316554 6.75446 0.707078 6.36393L6.36393 0.707078Z" />
    <path d="M13.435 6.36318C13.8255 6.7537 13.8255 7.38687 13.435 7.77739C13.0445 8.16791 12.4113 8.16791 12.0208 7.77739L6.36391 2.12054C5.97339 1.73001 5.97341 1.0976 6.36393 0.707078C6.75446 0.316554 7.38762 0.316553 7.77815 0.707078L13.435 6.36318Z" />
  </symbol>
  <symbol id="404" width="772" height="351" viewBox="0 0 772 351">
    <g opacity="0.2">
    <path d="M238.133 269.083H199.732V342.078H134.403V269.083H0V210.828L124.803 4.94519H199.732V216.91H238.133V269.083ZM134.403 216.91V70.4532L49.4061 216.91H134.403Z" fill="black"/>
    <path d="M337.413 175.734C337.413 214.727 340.613 244.595 347.014 265.34C353.414 285.928 366.526 296.222 386.351 296.222C406.176 296.222 419.133 285.928 425.221 265.34C431.465 244.595 434.587 214.727 434.587 175.734C434.587 134.869 431.465 104.611 425.221 84.9586C419.133 65.3062 406.176 55.4799 386.351 55.4799C366.526 55.4799 353.414 65.3062 347.014 84.9586C340.613 104.611 337.413 134.869 337.413 175.734ZM386.351 0.5C429.591 0.5 459.875 15.7072 477.202 46.1217C494.686 76.5361 503.427 119.74 503.427 175.734C503.427 231.728 494.686 274.854 477.202 305.112C459.875 335.371 429.591 350.5 386.351 350.5C343.111 350.5 312.749 335.371 295.266 305.112C277.939 274.854 269.275 231.728 269.275 175.734C269.275 119.74 277.939 76.5361 295.266 46.1217C312.749 15.7072 343.111 0.5 386.351 0.5Z" fill="black"/>
    <path d="M772 269.083H733.599V342.078H668.271V269.083H533.867V210.828L658.67 4.94519H733.599V216.91H772V269.083ZM668.271 216.91V70.4532L583.273 216.91H668.271Z" fill="black"/>
    </g>
  </symbol>
  <symbol id="icon-close-menu" width="19" height="18" viewBox="0 0 19 18">
    <rect x="1.89844" y="0.0878906" width="23" height="1.5" transform="rotate(45 1.89844 0.0878906)" fill="black"/>
    <rect x="0.837891" y="16.3516" width="23" height="1.5" transform="rotate(-45 0.837891 16.3516)" fill="black"/>
  </symbol>
  <symbol id="icon-close-cookie" width="11" height="11" viewBox="0 0 11 11">
    <path id="Union" fill-rule="evenodd" clip-rule="evenodd" d="M4.41943 5.48016L0.00012207 9.89948L1.06079 10.9601L5.4801 6.54083L9.89954 10.9602L10.9602 9.89954L6.54077 5.48016L10.9603 1.06067L9.89966 0L5.4801 4.41949L1.06067 6.10352e-05L0 1.06073L4.41943 5.48016Z"/>
  </symbol>
  <symbol id="logo" width="189" height="29" viewBox="0 0 189 29">
    <path fill-rule="evenodd" clip-rule="evenodd" d="M9.7172 14.8377L4 5H5.39067L11.0564 14.8377L5.39067 24.6754H4L9.7172 14.8377ZM39.2304 5.00176L33.4617 24.6772H32.071L37.8397 5.00176H39.2304ZM23.0574 5.00195L28.8261 24.6774H30.2168L24.4481 5.00195H23.0574ZM27.8475 5.00176H26.4568L31.1954 21.3293V16.8482L27.8475 5.00176ZM35.934 5.00176H34.5433L31.1954 16.8482V21.3293L35.934 5.00176ZM20.4305 5L14.7133 14.7862L20.482 24.6754H19.0913L13.3741 14.7862L19.0398 5H20.4305ZM7.55414 24.6719H8.94481L12.3442 18.8002L15.7436 24.6719H17.1343L12.3442 16.4825V16.4824L12.3442 16.4825L12.3442 16.4824V16.4825L7.55414 24.6719ZM15.7434 5.00014L17.1341 5.00014L12.344 13.1896L7.55392 5.00014L8.94459 5.00014L12.344 10.8719L15.7434 5.00014ZM42.3208 5H43.7629V24.6754H42.3208V5ZM55.1973 5H53.7551V24.6754H55.1973V5ZM45.7202 5H47.1624V24.6754H45.7202V5ZM58.5967 5H57.1546V24.6754H58.5967V5Z" />
    <path d="M80.5092 17.8326L79.5499 18.1038C79.4557 17.8326 79.3223 17.5869 79.1497 17.3668C78.977 17.1467 78.7514 16.9718 78.4729 16.8421C78.1982 16.7123 77.8569 16.6475 77.4488 16.6475C76.8367 16.6475 76.3345 16.7929 75.9422 17.0838C75.5498 17.3747 75.3536 17.7501 75.3536 18.21C75.3536 18.5991 75.487 18.9156 75.7538 19.1593C76.0246 19.3991 76.4405 19.5897 77.0015 19.7312L78.3669 20.0673C79.1242 20.252 79.6911 20.5449 80.0678 20.9458C80.4484 21.3468 80.6387 21.8499 80.6387 22.4553C80.6387 22.9663 80.4974 23.4203 80.2149 23.8173C79.9324 24.2143 79.5381 24.5268 79.032 24.7548C78.5298 24.9788 77.9471 25.0909 77.284 25.0909C76.4012 25.0909 75.6734 24.8924 75.1006 24.4954C74.5277 24.0944 74.1609 23.5166 74 22.7619L75.0064 22.5142C75.1359 23.0527 75.3889 23.4596 75.7656 23.7347C76.1462 24.0099 76.6464 24.1475 77.2664 24.1475C77.9608 24.1475 78.516 23.9922 78.9319 23.6817C79.3478 23.3672 79.5558 22.9741 79.5558 22.5024C79.5558 22.1369 79.4341 21.8303 79.1909 21.5826C78.9476 21.331 78.5788 21.1463 78.0844 21.0284L76.6072 20.6746C75.8225 20.4859 75.2418 20.1872 74.8651 19.7784C74.4885 19.3696 74.3002 18.8625 74.3002 18.2571C74.3002 17.7579 74.4355 17.3196 74.7062 16.9423C74.977 16.561 75.3497 16.2623 75.8245 16.0461C76.2992 15.8299 76.8407 15.7218 77.4488 15.7218C78.2767 15.7218 78.9378 15.9105 79.4322 16.2878C79.9305 16.6612 80.2895 17.1762 80.5092 17.8326Z" />
    <path d="M90.5648 25.0909C89.7213 25.0909 88.9915 24.8943 88.3755 24.5012C87.7595 24.1042 87.2828 23.5559 86.9454 22.8562C86.6119 22.1526 86.4451 21.3428 86.4451 20.427C86.4451 19.515 86.6119 18.7053 86.9454 17.9977C87.2828 17.2862 87.7477 16.73 88.3402 16.3291C88.9366 15.9242 89.6252 15.7218 90.4059 15.7218C90.8964 15.7218 91.3692 15.8122 91.8243 15.993C92.2794 16.1699 92.6875 16.4431 93.0485 16.8126C93.4134 17.1781 93.7017 17.64 93.9136 18.1982C94.1255 18.7524 94.2314 19.4089 94.2314 20.1675V20.6864H87.169V19.7607H93.1603C93.1603 19.1789 93.0426 18.6561 92.8072 18.1923C92.5757 17.7245 92.252 17.355 91.8361 17.0838C91.4241 16.8126 90.9474 16.677 90.4059 16.677C89.8331 16.677 89.3289 16.8303 88.8934 17.1369C88.4579 17.4435 88.1165 17.8483 87.8694 18.3515C87.6261 18.8546 87.5025 19.4049 87.4986 20.0024V20.5567C87.4986 21.276 87.6222 21.9049 87.8694 22.4435C88.1205 22.9781 88.4755 23.3928 88.9346 23.6876C89.3937 23.9824 89.9371 24.1298 90.5648 24.1298C90.9925 24.1298 91.3672 24.063 91.689 23.9293C92.0146 23.7957 92.2873 23.6168 92.507 23.3928C92.7307 23.1648 92.8994 22.9152 93.0132 22.6439L94.0078 22.9682C93.8705 23.3495 93.6449 23.7013 93.331 24.0237C93.021 24.346 92.6326 24.6054 92.1657 24.802C91.7027 24.9946 91.1691 25.0909 90.5648 25.0909Z" />
    <path d="M107.24 15.8456L103.938 24.9022H102.82L99.5185 15.8456H100.654L103.338 23.5166H103.42L106.104 15.8456H107.24Z" />
    <path d="M116.598 25.0909C115.755 25.0909 115.025 24.8943 114.409 24.5012C113.793 24.1042 113.316 23.5559 112.979 22.8562C112.645 22.1526 112.479 21.3428 112.479 20.427C112.479 19.515 112.645 18.7053 112.979 17.9977C113.316 17.2862 113.781 16.73 114.374 16.3291C114.97 15.9242 115.659 15.7218 116.439 15.7218C116.93 15.7218 117.403 15.8122 117.858 15.993C118.313 16.1699 118.721 16.4431 119.082 16.8126C119.447 17.1781 119.735 17.64 119.947 18.1982C120.159 18.7524 120.265 19.4089 120.265 20.1675V20.6864H113.202V19.7607H119.194C119.194 19.1789 119.076 18.6561 118.841 18.1923C118.609 17.7245 118.285 17.355 117.87 17.0838C117.458 16.8126 116.981 16.677 116.439 16.677C115.867 16.677 115.362 16.8303 114.927 17.1369C114.491 17.4435 114.15 17.8483 113.903 18.3515C113.66 18.8546 113.536 19.4049 113.532 20.0024V20.5567C113.532 21.276 113.656 21.9049 113.903 22.4435C114.154 22.9781 114.509 23.3928 114.968 23.6876C115.427 23.9824 115.971 24.1298 116.598 24.1298C117.026 24.1298 117.401 24.063 117.722 23.9293C118.048 23.7957 118.321 23.6168 118.54 23.3928C118.764 23.1648 118.933 22.9152 119.047 22.6439L120.041 22.9682C119.904 23.3495 119.678 23.7013 119.364 24.0237C119.054 24.346 118.666 24.6054 118.199 24.802C117.736 24.9946 117.203 25.0909 116.598 25.0909Z" />
    <path d="M127.599 19.2418V24.9022H126.551V15.8456H127.569V17.2666H127.663C127.875 16.8027 128.205 16.4313 128.652 16.1522C129.103 15.8692 129.66 15.7277 130.323 15.7277C130.932 15.7277 131.465 15.8554 131.924 16.1109C132.387 16.3625 132.746 16.734 133.001 17.2253C133.26 17.7167 133.39 18.32 133.39 19.0354V24.9022H132.342V19.1003C132.342 18.3574 132.134 17.7697 131.718 17.3373C131.306 16.9049 130.753 16.6888 130.059 16.6888C129.584 16.6888 129.162 16.791 128.793 16.9954C128.424 17.1998 128.132 17.4946 127.916 17.8798C127.704 18.2611 127.599 18.7151 127.599 19.2418Z" />
    <path d="M143.687 15.8456V16.7595H139.373V15.8456H143.687ZM140.72 13.6758H141.774V22.5378C141.774 22.9152 141.839 23.2119 141.968 23.4281C142.098 23.6404 142.266 23.7917 142.474 23.8821C142.682 23.9686 142.904 24.0119 143.139 24.0119C143.277 24.0119 143.394 24.004 143.492 23.9883C143.591 23.9686 143.677 23.949 143.751 23.9293L143.975 24.8786C143.873 24.9179 143.747 24.9533 143.598 24.9847C143.449 25.0201 143.265 25.0378 143.045 25.0378C142.661 25.0378 142.29 24.9533 141.933 24.7843C141.58 24.6152 141.289 24.3637 141.062 24.0296C140.834 23.6954 140.72 23.2807 140.72 22.7854V13.6758Z" />
    <path d="M153.601 25.0909C152.758 25.0909 152.028 24.8943 151.412 24.5012C150.796 24.1042 150.319 23.5559 149.982 22.8562C149.648 22.1526 149.481 21.3428 149.481 20.427C149.481 19.515 149.648 18.7053 149.982 17.9977C150.319 17.2862 150.784 16.73 151.376 16.3291C151.973 15.9242 152.661 15.7218 153.442 15.7218C153.933 15.7218 154.405 15.8122 154.861 15.993C155.316 16.1699 155.724 16.4431 156.085 16.8126C156.45 17.1781 156.738 17.64 156.95 18.1982C157.162 18.7524 157.268 19.4089 157.268 20.1675V20.6864H150.205V19.7607H156.197C156.197 19.1789 156.079 18.6561 155.843 18.1923C155.612 17.7245 155.288 17.355 154.872 17.0838C154.46 16.8126 153.984 16.677 153.442 16.677C152.869 16.677 152.365 16.8303 151.93 17.1369C151.494 17.4435 151.153 17.8483 150.906 18.3515C150.662 18.8546 150.539 19.4049 150.535 20.0024V20.5567C150.535 21.276 150.658 21.9049 150.906 22.4435C151.157 22.9781 151.512 23.3928 151.971 23.6876C152.43 23.9824 152.973 24.1298 153.601 24.1298C154.029 24.1298 154.403 24.063 154.725 23.9293C155.051 23.7957 155.324 23.6168 155.543 23.3928C155.767 23.1648 155.936 22.9152 156.049 22.6439L157.044 22.9682C156.907 23.3495 156.681 23.7013 156.367 24.0237C156.057 24.346 155.669 24.6054 155.202 24.802C154.739 24.9946 154.205 25.0909 153.601 25.0909Z" />
    <path d="M167.209 25.0909C166.365 25.0909 165.635 24.8943 165.019 24.5012C164.403 24.1042 163.926 23.5559 163.589 22.8562C163.256 22.1526 163.089 21.3428 163.089 20.427C163.089 19.515 163.256 18.7053 163.589 17.9977C163.926 17.2862 164.391 16.73 164.984 16.3291C165.58 15.9242 166.269 15.7218 167.05 15.7218C167.54 15.7218 168.013 15.8122 168.468 15.993C168.923 16.1699 169.331 16.4431 169.692 16.8126C170.057 17.1781 170.345 17.64 170.557 18.1982C170.769 18.7524 170.875 19.4089 170.875 20.1675V20.6864H163.813V19.7607H169.804C169.804 19.1789 169.686 18.6561 169.451 18.1923C169.219 17.7245 168.896 17.355 168.48 17.0838C168.068 16.8126 167.591 16.677 167.05 16.677C166.477 16.677 165.973 16.8303 165.537 17.1369C165.102 17.4435 164.76 17.8483 164.513 18.3515C164.27 18.8546 164.146 19.4049 164.142 20.0024V20.5567C164.142 21.276 164.266 21.9049 164.513 22.4435C164.764 22.9781 165.119 23.3928 165.578 23.6876C166.037 23.9824 166.581 24.1298 167.209 24.1298C167.636 24.1298 168.011 24.063 168.333 23.9293C168.658 23.7957 168.931 23.6168 169.151 23.3928C169.374 23.1648 169.543 22.9152 169.657 22.6439L170.651 22.9682C170.514 23.3495 170.289 23.7013 169.975 24.0237C169.665 24.346 169.276 24.6054 168.809 24.802C168.346 24.9946 167.813 25.0909 167.209 25.0909Z" />
    <path d="M178.209 19.2418V24.9022H177.161V15.8456H178.179V17.2666H178.274C178.485 16.8027 178.815 16.4313 179.262 16.1522C179.713 15.8692 180.271 15.7277 180.934 15.7277C181.542 15.7277 182.075 15.8554 182.535 16.1109C182.998 16.3625 183.357 16.734 183.612 17.2253C183.87 17.7167 184 18.32 184 19.0354V24.9022H182.952V19.1003C182.952 18.3574 182.744 17.7697 182.329 17.3373C181.917 16.9049 181.363 16.6888 180.669 16.6888C180.194 16.6888 179.772 16.791 179.404 16.9954C179.035 17.1998 178.742 17.4946 178.527 17.8798C178.315 18.2611 178.209 18.7151 178.209 19.2418Z" />
  </symbol>
</svg>
