<svg width="772" height="351" viewBox="0 0 772 351" fill="none" xmlns="http://www.w3.org/2000/svg">
<g opacity="0.2">
<path d="M238.133 269.083H199.732V342.078H134.403V269.083H0V210.828L124.803 4.94519H199.732V216.91H238.133V269.083ZM134.403 216.91V70.4532L49.4061 216.91H134.403Z" fill="black"/>
<path d="M337.413 175.734C337.413 214.727 340.613 244.595 347.014 265.34C353.414 285.928 366.526 296.222 386.351 296.222C406.176 296.222 419.133 285.928 425.221 265.34C431.465 244.595 434.587 214.727 434.587 175.734C434.587 134.869 431.465 104.611 425.221 84.9586C419.133 65.3062 406.176 55.4799 386.351 55.4799C366.526 55.4799 353.414 65.3062 347.014 84.9586C340.613 104.611 337.413 134.869 337.413 175.734ZM386.351 0.5C429.591 0.5 459.875 15.7072 477.202 46.1217C494.686 76.5361 503.427 119.74 503.427 175.734C503.427 231.728 494.686 274.854 477.202 305.112C459.875 335.371 429.591 350.5 386.351 350.5C343.111 350.5 312.749 335.371 295.266 305.112C277.939 274.854 269.275 231.728 269.275 175.734C269.275 119.74 277.939 76.5361 295.266 46.1217C312.749 15.7072 343.111 0.5 386.351 0.5Z" fill="black"/>
<path d="M772 269.083H733.599V342.078H668.271V269.083H533.867V210.828L658.67 4.94519H733.599V216.91H772V269.083ZM668.271 216.91V70.4532L583.273 216.91H668.271Z" fill="black"/>
</g>
</svg>
