<svg width="14" height="9" viewBox="0 0 14 9" fill="none" xmlns="http://www.w3.org/2000/svg">
<path d="M6.36393 0.707078C6.75446 0.316554 7.38762 0.316553 7.77815 0.707078C8.16867 1.0976 8.16867 1.73077 7.77815 2.12129L2.12129 7.77815C1.73077 8.16867 1.0976 8.16867 0.707078 7.77815C0.316554 7.38762 0.316554 6.75446 0.707078 6.36393L6.36393 0.707078Z" fill="white"/>
<path d="M13.435 6.36318C13.8255 6.7537 13.8255 7.38687 13.435 7.77739C13.0445 8.16791 12.4113 8.16791 12.0208 7.77739L6.36391 2.12054C5.97339 1.73001 5.97341 1.0976 6.36393 0.707078C6.75446 0.316554 7.38762 0.316553 7.77815 0.707078L13.435 6.36318Z" fill="white"/>
</svg>
